<svg id="surface12765" xmlns="http://www.w3.org/2000/svg" width="23.653" height="23.653" viewBox="0 0 23.653 23.653">
  <path id="Tracé_546" data-name="Tracé 546" d="M29.423,15.51H28.47v-.049H17.826v4.731h6.683a7.1,7.1,0,1,1-1.976-7.664l3.345-3.345a11.813,11.813,0,1,0,3.774,8.643A11.944,11.944,0,0,0,29.423,15.51Zm0,0" transform="translate(-6 -6)" fill="#ffc107"/>
  <path id="Tracé_547" data-name="Tracé 547" d="M9.461,12.321l3.885,2.85A7.081,7.081,0,0,1,24.63,12.528l3.345-3.345A11.8,11.8,0,0,0,9.461,12.321Zm0,0" transform="translate(-8.097 -6)" fill="#ff3d00"/>
  <path id="Tracé_548" data-name="Tracé 548" d="M19.821,51.511A11.768,11.768,0,0,0,27.75,48.44l-3.66-3.1a7.078,7.078,0,0,1-10.941-3.261l-3.856,2.97A11.814,11.814,0,0,0,19.821,51.511Zm0,0" transform="translate(-7.995 -27.858)" fill="#4caf50"/>
  <path id="Tracé_549" data-name="Tracé 549" d="M47.6,30.049h-.953V30H36v4.731h6.683a7.109,7.109,0,0,1-2.416,3.294,0,0,0,0,0,0,0l3.66,3.1a11.439,11.439,0,0,0,3.9-8.756A11.944,11.944,0,0,0,47.6,30.049Zm0,0" transform="translate(-24.174 -20.539)" fill="#1976d2"/>
</svg>
