<svg xmlns="http://www.w3.org/2000/svg" width="180" height="90.841" viewBox="0 0 180 90.841">
  <g id="Groupe_33" data-name="Groupe 33" transform="translate(2543.77 -2076.99)">
    <path id="Tracé_573" data-name="Tracé 573" d="M50.986,176.121a1.358,1.358,0,1,1-2.716,0V138.408a1.292,1.292,0,0,1,.395-.979,1.414,1.414,0,0,1,1.926,0,1.292,1.292,0,0,1,.395.979Z" transform="translate(-2591.732 1940.259)" fill="#9c3"/>
    <path id="Tracé_574" data-name="Tracé 574" d="M101.726,142.6a1.43,1.43,0,0,1,.411.979,1.362,1.362,0,0,1-2.337.947,18.35,18.35,0,0,0-5.952-3.993,17.55,17.55,0,0,0-6.709-1.342,17.351,17.351,0,0,0-6.947,1.407,17.785,17.785,0,0,0-5.654,3.836,18.133,18.133,0,0,0-3.788,5.687,17.993,17.993,0,0,0-.049,13.754,17.734,17.734,0,0,0,9.366,9.572,17.251,17.251,0,0,0,7.045,1.439,17.9,17.9,0,0,0,6.7-1.217,17.305,17.305,0,0,0,5.936-3.934,1.384,1.384,0,0,1,1.012-.411,1.369,1.369,0,0,1,.914.346,1.352,1.352,0,0,1,.411,1,1.3,1.3,0,0,1-.379.963,19.655,19.655,0,0,1-6.855,4.55,21.378,21.378,0,0,1-7.77,1.455,20.068,20.068,0,0,1-5.465-.741,21.036,21.036,0,0,1-4.9-2.067,20.085,20.085,0,0,1-4.139-3.2,20.318,20.318,0,0,1-3.192-4.172,20.626,20.626,0,0,1-2.051-4.913,20.761,20.761,0,0,1-.032-10.757,20.9,20.9,0,0,1,5.086-9.047,20.024,20.024,0,0,1,4.123-3.317,20.375,20.375,0,0,1,10.665-2.938,20.231,20.231,0,0,1,7.754,1.548A20.545,20.545,0,0,1,101.726,142.6Z" transform="translate(-2600.148 1940.521)" fill="#9c3"/>
    <path id="Tracé_575" data-name="Tracé 575" d="M262.711,176.121a1.329,1.329,0,0,1-.33.914,1.274,1.274,0,0,1-.806.444h-.346a.8.8,0,0,1-.6-.254l-.222-.189-26.94-34.743v33.828a1.358,1.358,0,1,1-2.716,0V138.441a1.361,1.361,0,0,1,.4-.979,1.3,1.3,0,0,1,.963-.411,1.492,1.492,0,0,1,1.136.568l26.724,34.429V138.441a1.36,1.36,0,0,1,.4-.979,1.338,1.338,0,0,1,1-.411,1.255,1.255,0,0,1,1,.411,1.426,1.426,0,0,1,.362.979v37.681Z" transform="translate(-2675.476 1940.259)" fill="#9c3"/>
    <path id="Tracé_576" data-name="Tracé 576" d="M324.087,136.46a20.115,20.115,0,0,1,8.024,1.612,20.562,20.562,0,0,1,10.957,10.941,20.669,20.669,0,0,1,.871,13.489,21.2,21.2,0,0,1-2.067,4.913,20.384,20.384,0,0,1-3.219,4.166,20.083,20.083,0,0,1-4.172,3.219,20.964,20.964,0,0,1-4.913,2.067,20.214,20.214,0,0,1-5.481.741,19.791,19.791,0,0,1-8.024-1.629,20.609,20.609,0,0,1-10.886-10.957,20.155,20.155,0,0,1-1.6-8.008,20.491,20.491,0,0,1,.725-5.465,21.175,21.175,0,0,1,2.051-4.913,20.248,20.248,0,0,1,3.192-4.166,19.969,19.969,0,0,1,4.139-3.209A20.965,20.965,0,0,1,318.6,137.2,20.525,20.525,0,0,1,324.087,136.46Zm0,2.716a17.351,17.351,0,0,0-6.947,1.407,17.7,17.7,0,0,0-9.442,9.49,17.527,17.527,0,0,0-1.391,6.947,17.876,17.876,0,0,0,2.419,9.02,17.984,17.984,0,0,0,6.347,6.4,17.45,17.45,0,0,0,4.264,1.8,17.819,17.819,0,0,0,17.368-4.6,18.076,18.076,0,0,0,2.8-3.6,17.449,17.449,0,0,0,1.8-4.264,17.758,17.758,0,0,0,.633-4.756,17.351,17.351,0,0,0-1.407-6.947,17.863,17.863,0,0,0-9.49-9.49A17.359,17.359,0,0,0,324.087,139.176Z" transform="translate(-2708.899 1940.53)" fill="#9c3"/>
    <path id="Tracé_577" data-name="Tracé 577" d="M51.157,260.052H47.7V257.39H57.8v2.662H54.344v9.361H51.163v-9.361Z" transform="translate(-2591.47 1885.032)" fill="#44a4dc"/>
    <path id="Tracé_578" data-name="Tracé 578" d="M68.41,257.39h4.48c2.592,0,4.81.887,4.81,3.885,0,2.906-2.218,4.107-4.81,4.107H71.6v4.031H68.415V257.39Zm4.258,5.476c1.261,0,1.926-.557,1.926-1.591s-.666-1.369-1.926-1.369H71.6v2.96Zm1.791-.422,3.9,6.974H74.806l-2.5-4.864Z" transform="translate(-2600.974 1885.033)" fill="#44a4dc"/>
    <path id="Tracé_579" data-name="Tracé 579" d="M89.706,257.39h3.847l3.625,12.028H93.813l-1.353-5.849c-.26-1.147-.611-2.592-.871-3.809h-.076c-.26,1.223-.574,2.662-.833,3.809l-1.353,5.849H86.07ZM88.689,264.4h5.849v2.462H88.689Z" transform="translate(-2609.079 1885.033)" fill="#44a4dc"/>
    <path id="Tracé_580" data-name="Tracé 580" d="M107.46,263.315c0-4.031,2.63-6.325,5.882-6.325a5.433,5.433,0,0,1,3.7,1.553l-1.737,1.959a2.836,2.836,0,0,0-1.959-.779c-1.483,0-2.63,1.293-2.63,3.479,0,2.256,1.147,3.517,2.776,3.517a2.689,2.689,0,0,0,1.959-.963l1.737,1.926a5.092,5.092,0,0,1-4.031,1.775C110.16,269.456,107.46,267.422,107.46,263.315Z" transform="translate(-2618.896 1885.216)" fill="#44a4dc"/>
    <path id="Tracé_581" data-name="Tracé 581" d="M127.33,257.39h3.219v4.475h.076l2.96-4.475H137.1l-6.547,8.955v3.073h-3.219V257.39Zm4.107,6.882,1.85-2.478,4.107,7.624h-3.517Z" transform="translate(-2628.014 1885.033)" fill="#44a4dc"/>
    <path id="Tracé_582" data-name="Tracé 582" d="M147.33,266.751h2.738v-6.7H147.33V257.39h8.657v2.662h-2.738v6.7h2.738v2.662H147.33Z" transform="translate(-2637.192 1885.032)" fill="#44a4dc"/>
    <path id="Tracé_583" data-name="Tracé 583" d="M166.79,257.39h3.219l2.018,5.367.979,2.7h.076a43.28,43.28,0,0,1-.444-4.588V257.39h3.035v12.028h-3.219l-2.018-5.384-.979-2.684h-.076a45.468,45.468,0,0,1,.444,4.588v3.479H166.79Z" transform="translate(-2646.123 1885.033)" fill="#44a4dc"/>
    <path id="Tracé_584" data-name="Tracé 584" d="M185.76,263.315c0-4.069,2.532-6.325,5.66-6.325a4.9,4.9,0,0,1,3.587,1.553L193.27,260.5a2.386,2.386,0,0,0-1.85-.779c-1.315,0-2.386,1.293-2.386,3.479,0,2.256.833,3.517,2.554,3.517a1.407,1.407,0,0,0,.812-.222V264.83h-1.5v-2.592h4.329v5.735a6.049,6.049,0,0,1-3.831,1.483C188.314,269.456,185.76,267.422,185.76,263.315Z" transform="translate(-2654.829 1885.216)" fill="#44a4dc"/>
    <path id="Tracé_585" data-name="Tracé 585" d="M225.22,267.731l1.813-2.181a5.217,5.217,0,0,0,3.073,1.163c.963,0,1.331-.314,1.331-.7,0-.7-.628-.85-1.737-1.315l-1.5-.628a3.533,3.533,0,0,1-2.532-3.349c0-2.056,1.85-3.739,4.588-3.739a6.038,6.038,0,0,1,4.107,1.612l-1.591,2a4.371,4.371,0,0,0-2.7-.871c-.7,0-1.185.26-1.185.812s.682.758,1.888,1.2l1.391.574a3.343,3.343,0,0,1,2.532,3.3c0,2.034-1.7,3.847-4.81,3.847A7.233,7.233,0,0,1,225.22,267.731Z" transform="translate(-2672.938 1885.22)" fill="#9c3"/>
    <path id="Tracé_586" data-name="Tracé 586" d="M246.245,257.39h8.176v2.662h-4.994v1.888h4.258V264.6h-4.258v2.148h5.178v2.662H246.24V257.39Z" transform="translate(-2682.584 1885.033)" fill="#9c3"/>
    <path id="Tracé_587" data-name="Tracé 587" d="M265.02,257.39h4.48c2.592,0,4.81.887,4.81,3.885,0,2.906-2.218,4.107-4.81,4.107h-1.293v4.031h-3.182V257.39Zm4.258,5.476c1.261,0,1.926-.557,1.926-1.591s-.666-1.369-1.926-1.369h-1.071v2.96Zm1.8-.422,3.9,6.974h-3.555l-2.5-4.864Z" transform="translate(-2691.203 1885.033)" fill="#9c3"/>
    <path id="Tracé_588" data-name="Tracé 588" d="M282.84,257.39h3.366l1.261,5.254c.335,1.277.557,2.516.887,3.809h.076c.335-1.293.574-2.532.887-3.809l1.223-5.254H293.8l-3.555,12.028h-3.847Z" transform="translate(-2699.381 1885.033)" fill="#9c3"/>
    <path id="Tracé_589" data-name="Tracé 589" d="M304.62,266.751h2.738v-6.7H304.62V257.39h8.657v2.662h-2.738v6.7h2.738v2.662H304.62Z" transform="translate(-2709.376 1885.032)" fill="#9c3"/>
    <path id="Tracé_590" data-name="Tracé 590" d="M323.73,263.315c0-4.031,2.63-6.325,5.882-6.325a5.433,5.433,0,0,1,3.7,1.553l-1.737,1.959a2.836,2.836,0,0,0-1.959-.779c-1.483,0-2.63,1.293-2.63,3.479,0,2.256,1.147,3.517,2.776,3.517a2.689,2.689,0,0,0,1.959-.963l1.737,1.926a5.092,5.092,0,0,1-4.031,1.775C326.435,269.456,323.73,267.422,323.73,263.315Z" transform="translate(-2718.147 1885.216)" fill="#9c3"/>
    <path id="Tracé_591" data-name="Tracé 591" d="M344.555,257.39h8.176v2.662h-4.994v1.888H352V264.6h-4.258v2.148h5.178v2.662H344.55V257.39Z" transform="translate(-2727.701 1885.033)" fill="#9c3"/>
    <path id="Tracé_592" data-name="Tracé 592" d="M362.85,267.731l1.813-2.181a5.217,5.217,0,0,0,3.073,1.163c.963,0,1.331-.314,1.331-.7,0-.7-.628-.85-1.737-1.315l-1.5-.628a3.533,3.533,0,0,1-2.532-3.349c0-2.056,1.851-3.739,4.588-3.739a6.038,6.038,0,0,1,4.107,1.612l-1.591,2a4.371,4.371,0,0,0-2.7-.871c-.7,0-1.185.26-1.185.812s.682.758,1.888,1.2l1.391.574a3.343,3.343,0,0,1,2.532,3.3c0,2.034-1.7,3.847-4.81,3.847A7.233,7.233,0,0,1,362.85,267.731Z" transform="translate(-2736.1 1885.22)" fill="#9c3"/>
    <path id="Tracé_593" data-name="Tracé 593" d="M290.716,245.516h-.53a1.358,1.358,0,1,1,0-2.716h.53a1.358,1.358,0,1,1,0,2.716Zm-5.844,0h-.53a1.358,1.358,0,1,1,0-2.716h.53a1.358,1.358,0,0,1,0,2.716Zm-5.844,0h-.53a1.358,1.358,0,1,1,0-2.716h.53a1.358,1.358,0,0,1,0,2.716Zm-5.838,0h-.53a1.358,1.358,0,0,1,0-2.716h.53a1.358,1.358,0,1,1,0,2.716Zm-5.844,0h-.53a1.358,1.358,0,0,1,0-2.716h.53a1.358,1.358,0,1,1,0,2.716Zm-5.844,0h-.53a1.358,1.358,0,1,1,0-2.716h.53a1.358,1.358,0,0,1,0,2.716Zm-5.838,0h-.53a1.358,1.358,0,0,1,0-2.716h.53a1.358,1.358,0,1,1,0,2.716Zm-5.844,0h-.53a1.358,1.358,0,0,1,0-2.716h.53a1.358,1.358,0,1,1,0,2.716Zm-5.844,0h-.53a1.358,1.358,0,1,1,0-2.716h.53a1.358,1.358,0,1,1,0,2.716Zm-5.838,0h-.53a1.358,1.358,0,0,1,0-2.716h.53a1.358,1.358,0,1,1,0,2.716Zm-5.844,0h-.53a1.358,1.358,0,0,1,0-2.716h.53a1.358,1.358,0,1,1,0,2.716Zm-5.844,0h-.53a1.358,1.358,0,1,1,0-2.716h.53a1.358,1.358,0,1,1,0,2.716Zm-5.838,0h-.53a1.358,1.358,0,0,1,0-2.716h.53a1.358,1.358,0,1,1,0,2.716Zm-5.844,0h-.53a1.358,1.358,0,1,1,0-2.716h.53a1.358,1.358,0,1,1,0,2.716Zm-5.844,0h-.53a1.358,1.358,0,0,1,0-2.716h.53a1.358,1.358,0,1,1,0,2.716Zm-5.838,0h-.53a1.358,1.358,0,1,1,0-2.716h.53a1.358,1.358,0,0,1,0,2.716Z" transform="translate(-2661.915 1891.728)" fill="#9c3"/>
    <path id="Tracé_594" data-name="Tracé 594" d="M375.569,245.516H375.3a1.358,1.358,0,1,1,0-2.716h.271a1.358,1.358,0,1,1,0,2.716Z" transform="translate(-2741.189 1891.728)" fill="#9c3"/>
    <path id="Tracé_595" data-name="Tracé 595" d="M127.03,245.516H49.618a1.358,1.358,0,1,1,0-2.716h77.406a1.358,1.358,0,0,1,.005,2.716Z" transform="translate(-2591.727 1891.728)" fill="#44a4dc"/>
    <path id="Tracé_596" data-name="Tracé 596" d="M181.569,151.882a20.548,20.548,0,1,0-35.43,18.6c4.951,5.714,16.357,14.739,23.667,17.893,4.859-6.309,10.443-19.733,11.99-27.135A20.407,20.407,0,0,0,181.569,151.882Zm-2.722,9.907a17.449,17.449,0,0,1-1.8,4.264,18.186,18.186,0,0,1-2.8,3.6,17.991,17.991,0,0,1-3.614,2.8,17.81,17.81,0,0,1-4.264,1.8,17.58,17.58,0,0,1-4.74.633,17.786,17.786,0,0,1-4.756-.633,17.447,17.447,0,0,1-4.264-1.8,17.868,17.868,0,0,1-8.771-15.421,17.526,17.526,0,0,1,1.391-6.947,18.029,18.029,0,0,1,3.788-5.671,17.831,17.831,0,0,1,5.654-3.82,17.858,17.858,0,0,1,13.895,0,17.863,17.863,0,0,1,9.49,9.491,17.351,17.351,0,0,1,1.407,6.947A17.122,17.122,0,0,1,178.847,161.789Z" transform="translate(-2634.346 1940.518)" fill="#44a4dc"/>
    <path id="Tracé_597" data-name="Tracé 597" d="M48.22,288.2H49.5v6.769H48.22Zm.568,5.535h3.966v1.228H48.788Z" transform="translate(-2591.709 1870.893)" fill="#44a4dc"/>
    <path id="Tracé_598" data-name="Tracé 598" d="M58.1,296.245a1.508,1.508,0,0,1-.384-1.125,1.309,1.309,0,0,1,.433-1.077,1.993,1.993,0,0,1,1.293-.357h1.212l.065.974H59.451a.69.69,0,0,0-.433.114.409.409,0,0,0-.146.346.382.382,0,0,0,.184.352,1.042,1.042,0,0,0,.546.114,1.946,1.946,0,0,0,.763-.114.379.379,0,0,0,.249-.362l.1.7a.662.662,0,0,1-.238.444,1.331,1.331,0,0,1-.53.271,2.483,2.483,0,0,1-.671.092A1.613,1.613,0,0,1,58.1,296.245Zm2.505-2.76a.647.647,0,0,0-.222-.519.96.96,0,0,0-.633-.184,1.682,1.682,0,0,0-.536.087,1.5,1.5,0,0,0-.471.249l-.79-.779a1.941,1.941,0,0,1,.763-.514,2.831,2.831,0,0,1,1.05-.184,2.523,2.523,0,0,1,1.082.211,1.513,1.513,0,0,1,.682.617,1.888,1.888,0,0,1,.233.969v3.106H60.609v-3.057Z" transform="translate(-2596.068 1869.314)" fill="#44a4dc"/>
    <path id="Tracé_599" data-name="Tracé 599" d="M71.57,290.582h2.365v1.088H71.57Zm.8,4.529a1.39,1.39,0,0,1-.3-.958V289.17h1.277v4.664a.425.425,0,0,0,.07.271.238.238,0,0,0,.206.1h.314v1.228h-.644A1.166,1.166,0,0,1,72.365,295.111Z" transform="translate(-2602.425 1870.448)" fill="#44a4dc"/>
    <path id="Tracé_600" data-name="Tracé 600" d="M78,291.72h1.369v4.832H78Zm2.494,1.2a.932.932,0,0,0-.314-.049.746.746,0,0,0-.6.249,1.039,1.039,0,0,0-.211.693l-.1-1.255a1.743,1.743,0,0,1,.519-.671,1.113,1.113,0,0,1,.7-.238,1.468,1.468,0,0,1,.546.1,1.251,1.251,0,0,1,.427.281l-.747,1.039A.568.568,0,0,0,80.494,292.922Z" transform="translate(-2605.375 1869.31)" fill="#44a4dc"/>
    <path id="Tracé_601" data-name="Tracé 601" d="M85.474,296.245a1.507,1.507,0,0,1-.384-1.125,1.309,1.309,0,0,1,.433-1.077,1.993,1.993,0,0,1,1.293-.357h1.212l.065.974H86.821a.69.69,0,0,0-.433.114.409.409,0,0,0-.146.346.382.382,0,0,0,.184.352,1.042,1.042,0,0,0,.546.114,1.946,1.946,0,0,0,.763-.114.379.379,0,0,0,.249-.362l.1.7a.662.662,0,0,1-.238.444,1.4,1.4,0,0,1-.53.271,2.483,2.483,0,0,1-.671.092A1.622,1.622,0,0,1,85.474,296.245Zm2.511-2.76a.647.647,0,0,0-.222-.519,1,1,0,0,0-.633-.184,1.682,1.682,0,0,0-.536.087,1.5,1.5,0,0,0-.471.249l-.79-.779a1.94,1.94,0,0,1,.763-.514,2.831,2.831,0,0,1,1.05-.184,2.523,2.523,0,0,1,1.082.211,1.513,1.513,0,0,1,.682.617,1.888,1.888,0,0,1,.233.969v3.106H87.985v-3.057Z" transform="translate(-2608.629 1869.314)" fill="#44a4dc"/>
    <path id="Tracé_602" data-name="Tracé 602" d="M95.651,296.348a1.71,1.71,0,0,1-.747-.768,2.6,2.6,0,0,1-.254-1.212v-.519a2.642,2.642,0,0,1,.254-1.2,1.713,1.713,0,0,1,.747-.758,2.482,2.482,0,0,1,1.18-.26,3,3,0,0,1,.747.092,2.206,2.206,0,0,1,.633.265,1.725,1.725,0,0,1,.465.417l-.822.8a1.249,1.249,0,0,0-.417-.254,1.4,1.4,0,0,0-.5-.092,1.032,1.032,0,0,0-.752.26.982.982,0,0,0-.265.736v.519a.991.991,0,0,0,.265.747,1.035,1.035,0,0,0,.752.265,1.3,1.3,0,0,0,.5-.1,1.187,1.187,0,0,0,.411-.281l.822.849a1.817,1.817,0,0,1-.471.411,2.254,2.254,0,0,1-.628.26,3.008,3.008,0,0,1-.747.087A2.482,2.482,0,0,1,95.651,296.348Zm.022,2.078.195-.72a1.915,1.915,0,0,0,.487.065.879.879,0,0,0,.3-.043c.07-.027.108-.07.108-.124s-.06-.114-.179-.152a1.75,1.75,0,0,0-.5-.054l.449-.563a1.74,1.74,0,0,1,.947.216.725.725,0,0,1-.027,1.239,1.979,1.979,0,0,1-1.023.222A3.074,3.074,0,0,1,95.673,298.426Zm.422-2.3h.958V297.4h-.958Z" transform="translate(-2613.016 1869.319)" fill="#44a4dc"/>
    <path id="Tracé_603" data-name="Tracé 603" d="M103.634,296.245a1.507,1.507,0,0,1-.384-1.125,1.309,1.309,0,0,1,.433-1.077,1.993,1.993,0,0,1,1.293-.357h1.212l.065.974h-1.272a.69.69,0,0,0-.433.114.409.409,0,0,0-.146.346.383.383,0,0,0,.184.352,1.042,1.042,0,0,0,.547.114,1.946,1.946,0,0,0,.763-.114.379.379,0,0,0,.249-.362l.1.7a.662.662,0,0,1-.238.444,1.331,1.331,0,0,1-.53.271,2.483,2.483,0,0,1-.671.092A1.6,1.6,0,0,1,103.634,296.245Zm2.505-2.76a.647.647,0,0,0-.222-.519.96.96,0,0,0-.633-.184,1.682,1.682,0,0,0-.536.087,1.5,1.5,0,0,0-.471.249l-.79-.779a1.941,1.941,0,0,1,.763-.514,2.831,2.831,0,0,1,1.05-.184,2.523,2.523,0,0,1,1.082.211,1.513,1.513,0,0,1,.682.617,1.888,1.888,0,0,1,.233.969v3.106h-1.158v-3.057Z" transform="translate(-2616.963 1869.314)" fill="#44a4dc"/>
    <path id="Tracé_604" data-name="Tracé 604" d="M113.05,288.2h1.277v6.769H113.05Zm1.667,6.623a1.253,1.253,0,0,1-.454-.611l.065-1.1a.864.864,0,0,0,.087.406.583.583,0,0,0,.243.254.8.8,0,0,0,.39.087.7.7,0,0,0,.557-.238,1.033,1.033,0,0,0,.2-.671v-.768a1.051,1.051,0,0,0-.2-.687.677.677,0,0,0-.557-.243.8.8,0,0,0-.39.092.554.554,0,0,0-.243.265.968.968,0,0,0-.087.417l-.1-1.071a1.666,1.666,0,0,1,.514-.655,1.192,1.192,0,0,1,.7-.233,1.5,1.5,0,0,1,.877.249,1.544,1.544,0,0,1,.557.72,3,3,0,0,1,.189,1.142v.774a3.072,3.072,0,0,1-.189,1.131,1.529,1.529,0,0,1-.557.714,1.546,1.546,0,0,1-.877.249A1.265,1.265,0,0,1,114.717,294.823Z" transform="translate(-2621.461 1870.893)" fill="#44a4dc"/>
    <path id="Tracé_605" data-name="Tracé 605" d="M122.51,288.2h1.277v1.277H122.51Zm0,1.937h1.277v4.832H122.51Z" transform="translate(-2625.802 1870.893)" fill="#44a4dc"/>
    <path id="Tracé_606" data-name="Tracé 606" d="M128.342,293.373a.336.336,0,0,0,.1.271.392.392,0,0,0,.287.1h.216v1.228h-.655a1.2,1.2,0,0,1-.9-.335,1.3,1.3,0,0,1-.319-.947V288.2h1.277v5.173Z" transform="translate(-2627.895 1870.893)" fill="#44a4dc"/>
    <path id="Tracé_607" data-name="Tracé 607" d="M132.03,288.2h1.277v1.277H132.03Zm0,1.937h1.277v4.832H132.03Z" transform="translate(-2630.171 1870.893)" fill="#44a4dc"/>
    <path id="Tracé_608" data-name="Tracé 608" d="M135.9,290.582h2.365v1.088H135.9Zm.79,4.529a1.39,1.39,0,0,1-.3-.958V289.17h1.277v4.664a.425.425,0,0,0,.07.271.238.238,0,0,0,.206.1h.314v1.228h-.644A1.181,1.181,0,0,1,136.69,295.111Z" transform="translate(-2631.947 1870.448)" fill="#44a4dc"/>
    <path id="Tracé_609" data-name="Tracé 609" d="M143.087,293.908a1.729,1.729,0,0,1-.758-.741,2.453,2.453,0,0,1-.26-1.169v-.546a2.723,2.723,0,0,1,.249-1.223,1.761,1.761,0,0,1,.725-.774,2.326,2.326,0,0,1,1.152-.265,1.864,1.864,0,0,1,1.082.314,1.947,1.947,0,0,1,.687.92,4.006,4.006,0,0,1,.233,1.456v.314h-3.306v-.86h2.143l-.016-.114a1.1,1.1,0,0,0-.265-.649.738.738,0,0,0-.568-.227.918.918,0,0,0-.714.276,1.116,1.116,0,0,0-.254.779v.617a1.014,1.014,0,0,0,.276.763,1.069,1.069,0,0,0,.774.271,1.508,1.508,0,0,0,.509-.092,1.46,1.46,0,0,0,.455-.26l.833.741a2.894,2.894,0,0,1-.849.536,2.548,2.548,0,0,1-.947.189A2.612,2.612,0,0,1,143.087,293.908Zm.363-5.968,1.331-1.65.9.752-1.418,1.564Z" transform="translate(-2634.778 1871.77)" fill="#44a4dc"/>
    <path id="Tracé_610" data-name="Tracé 610" d="M157,294.79a1.528,1.528,0,0,1-.557-.714,2.944,2.944,0,0,1-.189-1.131v-.774a3.132,3.132,0,0,1,.189-1.142,1.485,1.485,0,0,1,.557-.72,1.546,1.546,0,0,1,.877-.249,1.145,1.145,0,0,1,.7.233,1.627,1.627,0,0,1,.514.655l-.1,1.071a.9.9,0,0,0-.087-.417.607.607,0,0,0-.243-.265.743.743,0,0,0-.39-.092.684.684,0,0,0-.557.243,1.072,1.072,0,0,0-.2.687v.768a1,1,0,0,0,.2.671.689.689,0,0,0,.557.238.8.8,0,0,0,.39-.087.582.582,0,0,0,.243-.254.935.935,0,0,0,.087-.406l.065,1.1a1.255,1.255,0,0,1-.454.611,1.227,1.227,0,0,1-.73.216A1.559,1.559,0,0,1,157,294.79Zm2-6.59h1.277v6.769H159Z" transform="translate(-2641.286 1870.893)" fill="#44a4dc"/>
    <path id="Tracé_611" data-name="Tracé 611" d="M166.767,296.368a1.729,1.729,0,0,1-.757-.741,2.453,2.453,0,0,1-.26-1.169v-.547a2.723,2.723,0,0,1,.249-1.223,1.761,1.761,0,0,1,.725-.774,2.327,2.327,0,0,1,1.152-.265,1.863,1.863,0,0,1,1.082.314,1.948,1.948,0,0,1,.687.92,4.006,4.006,0,0,1,.233,1.456v.314h-3.306v-.86h2.143l-.016-.114a1.1,1.1,0,0,0-.265-.649.738.738,0,0,0-.568-.227.918.918,0,0,0-.714.276,1.116,1.116,0,0,0-.254.779v.617a1.015,1.015,0,0,0,.276.763,1.069,1.069,0,0,0,.774.271,1.507,1.507,0,0,0,.509-.092,1.459,1.459,0,0,0,.455-.26l.833.741a2.894,2.894,0,0,1-.849.536,2.548,2.548,0,0,1-.947.189A2.6,2.6,0,0,1,166.767,296.368Z" transform="translate(-2645.646 1869.31)" fill="#44a4dc"/>
    <path id="Tracé_612" data-name="Tracé 612" d="M182.5,291.78h1.272l-1.818,4.832h-.9l-1.818-4.832H180.5l1,3.03Z" transform="translate(-2651.832 1869.25)" fill="#44a4dc"/>
    <path id="Tracé_613" data-name="Tracé 613" d="M189.528,296.374a1.639,1.639,0,0,1-.714-.72,2.447,2.447,0,0,1-.243-1.136v-.785a2.416,2.416,0,0,1,.243-1.125,1.627,1.627,0,0,1,.714-.714,2.748,2.748,0,0,1,2.262,0,1.627,1.627,0,0,1,.714.714,2.416,2.416,0,0,1,.244,1.125v.8a2.439,2.439,0,0,1-.244,1.131,1.627,1.627,0,0,1-.714.714,2.425,2.425,0,0,1-1.131.249A2.476,2.476,0,0,1,189.528,296.374Zm1.721-1.207a.9.9,0,0,0,.216-.633v-.8a.851.851,0,0,0-.216-.628.776.776,0,0,0-.6-.222.792.792,0,0,0-.6.222.872.872,0,0,0-.211.628v.8a.886.886,0,0,0,.211.633.775.775,0,0,0,.6.227A.8.8,0,0,0,191.248,295.167Z" transform="translate(-2656.119 1869.31)" fill="#44a4dc"/>
    <path id="Tracé_614" data-name="Tracé 614" d="M199.1,296.541a3.514,3.514,0,0,1-.768-.227,2.751,2.751,0,0,1-.633-.357l.785-.985a3,3,0,0,0,.73.346,2.389,2.389,0,0,0,.725.119,1.941,1.941,0,0,0,.693-.1c.162-.065.249-.157.249-.276a.308.308,0,0,0-.108-.249.647.647,0,0,0-.276-.119q-.17-.033-.471-.065l-.168-.016-.173-.016a.092.092,0,0,0-.038-.005h-.038a5.147,5.147,0,0,1-.866-.173,1.13,1.13,0,0,1-.552-.395,1.352,1.352,0,0,1-.227-.844,1.42,1.42,0,0,1,.233-.828,1.452,1.452,0,0,1,.676-.525,2.843,2.843,0,0,1,1.071-.179,3.813,3.813,0,0,1,.736.076,3.633,3.633,0,0,1,1.315.552l-.758.925a3.044,3.044,0,0,0-.66-.276,2.407,2.407,0,0,0-.66-.1,1.6,1.6,0,0,0-.6.087c-.141.059-.216.141-.216.249a.208.208,0,0,0,.114.189.939.939,0,0,0,.287.1c.114.022.276.043.5.065.027.005.054.005.081.011s.054.005.087.011a.106.106,0,0,0,.043.005.119.119,0,0,1,.043.005,5.486,5.486,0,0,1,.914.168,1.172,1.172,0,0,1,.6.411,1.4,1.4,0,0,1,.249.9,1.426,1.426,0,0,1-.952,1.407,2.992,2.992,0,0,1-1.12.189A4.743,4.743,0,0,1,199.1,296.541Z" transform="translate(-2660.308 1869.31)" fill="#44a4dc"/>
    <path id="Tracé_615" data-name="Tracé 615" d="M212.47,288.2h1.277v6.769H212.47Zm.579,2.911h2.164a.781.781,0,0,0,.406-.1.723.723,0,0,0,.271-.3.935.935,0,0,0,.1-.438.974.974,0,0,0-.1-.444.689.689,0,0,0-.271-.3.767.767,0,0,0-.406-.1h-2.164V288.2h2.132a2.306,2.306,0,0,1,1.115.26,1.865,1.865,0,0,1,.747.73,2.363,2.363,0,0,1,0,2.175,1.853,1.853,0,0,1-.747.725,2.3,2.3,0,0,1-1.115.254h-2.132Z" transform="translate(-2667.086 1870.893)" fill="#44a4dc"/>
    <path id="Tracé_616" data-name="Tracé 616" d="M223.27,288.2h1.277v6.769H223.27Zm.563,5.535H227.8v1.228h-3.966Z" transform="translate(-2672.043 1870.893)" fill="#44a4dc"/>
    <path id="Tracé_617" data-name="Tracé 617" d="M231.47,288.2h1.315l1.439,4.518,1.439-4.518h1.315l-2.256,6.769h-1Z" transform="translate(-2675.806 1870.893)" fill="#44a4dc"/>
    <path id="Tracé_618" data-name="Tracé 618" d="M248.427,296.368a1.729,1.729,0,0,1-.758-.741,2.453,2.453,0,0,1-.26-1.169v-.547a2.723,2.723,0,0,1,.249-1.223,1.761,1.761,0,0,1,.725-.774,2.327,2.327,0,0,1,1.152-.265,1.864,1.864,0,0,1,1.082.314,1.948,1.948,0,0,1,.687.92,4.006,4.006,0,0,1,.233,1.456v.314h-3.306v-.86h2.143l-.016-.114a1.1,1.1,0,0,0-.265-.649.738.738,0,0,0-.568-.227.917.917,0,0,0-.714.276,1.116,1.116,0,0,0-.254.779v.617a1.015,1.015,0,0,0,.276.763,1.069,1.069,0,0,0,.774.271,1.507,1.507,0,0,0,.509-.092,1.458,1.458,0,0,0,.455-.26l.833.741a2.9,2.9,0,0,1-.85.536,2.548,2.548,0,0,1-.947.189A2.581,2.581,0,0,1,248.427,296.368Z" transform="translate(-2683.122 1869.31)" fill="#44a4dc"/>
    <path id="Tracé_619" data-name="Tracé 619" d="M257.11,291.72h1.277v4.832H257.11Zm2.792,1.9a.736.736,0,0,0-.2-.552.792.792,0,0,0-.574-.195.715.715,0,0,0-.547.2.768.768,0,0,0-.195.557l-.1-1.071a1.786,1.786,0,0,1,.525-.682,1.257,1.257,0,0,1,.768-.227,1.435,1.435,0,0,1,1.18.514,2.233,2.233,0,0,1,.417,1.456v2.933H259.9Z" transform="translate(-2687.573 1869.31)" fill="#44a4dc"/>
    <path id="Tracé_620" data-name="Tracé 620" d="M271.69,291.716h1.277v6.8H271.69Zm1.667,4.686a1.254,1.254,0,0,1-.454-.611l.065-1.1a.863.863,0,0,0,.087.406.583.583,0,0,0,.243.254.8.8,0,0,0,.39.087.7.7,0,0,0,.557-.238,1.034,1.034,0,0,0,.2-.671v-.768a1.051,1.051,0,0,0-.2-.687.677.677,0,0,0-.557-.243.8.8,0,0,0-.39.092.554.554,0,0,0-.243.265.968.968,0,0,0-.087.417l-.1-1.071a1.664,1.664,0,0,1,.514-.655,1.191,1.191,0,0,1,.7-.233,1.505,1.505,0,0,1,.876.249,1.544,1.544,0,0,1,.557.72,3,3,0,0,1,.189,1.142v.774a3.071,3.071,0,0,1-.189,1.131,1.528,1.528,0,0,1-.557.714,1.546,1.546,0,0,1-.876.249A1.24,1.24,0,0,1,273.357,296.4Z" transform="translate(-2694.264 1869.314)" fill="#44a4dc"/>
    <path id="Tracé_621" data-name="Tracé 621" d="M281.968,296.374a1.639,1.639,0,0,1-.714-.72,2.448,2.448,0,0,1-.244-1.136v-.785a2.416,2.416,0,0,1,.244-1.125,1.627,1.627,0,0,1,.714-.714,2.748,2.748,0,0,1,2.262,0,1.628,1.628,0,0,1,.714.714,2.417,2.417,0,0,1,.244,1.125v.8a2.439,2.439,0,0,1-.244,1.131,1.627,1.627,0,0,1-.714.714,2.667,2.667,0,0,1-2.262-.005Zm1.726-1.207a.9.9,0,0,0,.216-.633v-.8a.851.851,0,0,0-.216-.628.776.776,0,0,0-.6-.222.792.792,0,0,0-.6.222.872.872,0,0,0-.211.628v.8a.886.886,0,0,0,.211.633.775.775,0,0,0,.6.227A.816.816,0,0,0,283.694,295.167Z" transform="translate(-2698.541 1869.31)" fill="#44a4dc"/>
    <path id="Tracé_622" data-name="Tracé 622" d="M290.74,288.2h1.277v1.277H290.74Zm0,1.937h1.277v4.832H290.74Z" transform="translate(-2703.006 1870.893)" fill="#44a4dc"/>
    <path id="Tracé_623" data-name="Tracé 623" d="M295.29,291.72h1.277v4.832H295.29Zm2.8,1.9a.736.736,0,0,0-.2-.552.792.792,0,0,0-.574-.195.715.715,0,0,0-.547.2.769.769,0,0,0-.195.557l-.1-1.071a1.785,1.785,0,0,1,.525-.682,1.256,1.256,0,0,1,.768-.227,1.435,1.435,0,0,1,1.18.514,2.232,2.232,0,0,1,.417,1.456v2.933h-1.277Z" transform="translate(-2705.095 1869.31)" fill="#44a4dc"/>
    <path id="Tracé_624" data-name="Tracé 624" d="M304.45,290.582h2.365v1.088H304.45Zm.79,4.529a1.39,1.39,0,0,1-.3-.958V289.17h1.277v4.664a.425.425,0,0,0,.07.271.238.238,0,0,0,.206.1h.314v1.228h-.644A1.181,1.181,0,0,1,305.24,295.111Z" transform="translate(-2709.299 1870.448)" fill="#44a4dc"/>
    <path id="Tracé_625" data-name="Tracé 625" d="M316.107,294.79a1.528,1.528,0,0,1-.557-.714,2.945,2.945,0,0,1-.189-1.131v-.774a3.131,3.131,0,0,1,.189-1.142,1.485,1.485,0,0,1,.557-.72,1.545,1.545,0,0,1,.876-.249,1.145,1.145,0,0,1,.7.233,1.626,1.626,0,0,1,.514.655l-.1,1.071a.9.9,0,0,0-.087-.417.607.607,0,0,0-.243-.265.743.743,0,0,0-.39-.092.684.684,0,0,0-.557.243,1.072,1.072,0,0,0-.2.687v.768a1,1,0,0,0,.2.671.689.689,0,0,0,.557.238.8.8,0,0,0,.39-.087.582.582,0,0,0,.243-.254.935.935,0,0,0,.087-.406l.065,1.1a1.255,1.255,0,0,1-.455.611,1.227,1.227,0,0,1-.73.216A1.546,1.546,0,0,1,316.107,294.79Zm2-6.59h1.277v6.769H318.1Z" transform="translate(-2714.305 1870.893)" fill="#44a4dc"/>
    <path id="Tracé_626" data-name="Tracé 626" d="M325.877,296.368a1.73,1.73,0,0,1-.758-.741,2.453,2.453,0,0,1-.26-1.169v-.547a2.723,2.723,0,0,1,.249-1.223,1.761,1.761,0,0,1,.725-.774,2.327,2.327,0,0,1,1.152-.265,1.863,1.863,0,0,1,1.082.314,1.948,1.948,0,0,1,.687.92,4.007,4.007,0,0,1,.233,1.456v.314h-3.306v-.86h2.143l-.016-.114a1.1,1.1,0,0,0-.265-.649.738.738,0,0,0-.568-.227.917.917,0,0,0-.714.276,1.116,1.116,0,0,0-.254.779v.617a1.014,1.014,0,0,0,.276.763,1.069,1.069,0,0,0,.774.271,1.507,1.507,0,0,0,.509-.092,1.459,1.459,0,0,0,.455-.26l.833.741a2.894,2.894,0,0,1-.85.536,2.547,2.547,0,0,1-.947.189A2.581,2.581,0,0,1,325.877,296.368Z" transform="translate(-2718.665 1869.31)" fill="#44a4dc"/>
    <path id="Tracé_627" data-name="Tracé 627" d="M341.608,291.78h1.272l-1.818,4.832h-.9l-1.818-4.832h1.272l1,3.03Z" transform="translate(-2724.851 1869.25)" fill="#44a4dc"/>
    <path id="Tracé_628" data-name="Tracé 628" d="M348.687,296.368a1.729,1.729,0,0,1-.758-.741,2.453,2.453,0,0,1-.26-1.169v-.547a2.723,2.723,0,0,1,.249-1.223,1.761,1.761,0,0,1,.725-.774,2.327,2.327,0,0,1,1.153-.265,1.863,1.863,0,0,1,1.082.314,1.948,1.948,0,0,1,.687.92,4.006,4.006,0,0,1,.233,1.456v.314h-3.306v-.86h2.143l-.016-.114a1.1,1.1,0,0,0-.265-.649.738.738,0,0,0-.568-.227.918.918,0,0,0-.714.276,1.116,1.116,0,0,0-.254.779v.617a1.015,1.015,0,0,0,.276.763,1.069,1.069,0,0,0,.774.271,1.506,1.506,0,0,0,.509-.092,1.458,1.458,0,0,0,.455-.26l.833.741a2.894,2.894,0,0,1-.85.536,2.547,2.547,0,0,1-.947.189A2.6,2.6,0,0,1,348.687,296.368Z" transform="translate(-2729.133 1869.31)" fill="#44a4dc"/>
    <path id="Tracé_629" data-name="Tracé 629" d="M357.38,291.72h1.277v4.832H357.38Zm2.792,1.9a.736.736,0,0,0-.2-.552.792.792,0,0,0-.574-.195.715.715,0,0,0-.546.2.768.768,0,0,0-.195.557l-.1-1.071a1.784,1.784,0,0,1,.525-.682,1.256,1.256,0,0,1,.768-.227,1.435,1.435,0,0,1,1.18.514,2.232,2.232,0,0,1,.417,1.456v2.933h-1.277Z" transform="translate(-2733.589 1869.31)" fill="#44a4dc"/>
    <path id="Tracé_630" data-name="Tracé 630" d="M366.53,290.582h2.365v1.088H366.53Zm.8,4.529a1.39,1.39,0,0,1-.3-.958V289.17H368.3v4.664a.425.425,0,0,0,.07.271.238.238,0,0,0,.206.1h.314v1.228h-.644A1.166,1.166,0,0,1,367.325,295.111Z" transform="translate(-2737.788 1870.448)" fill="#44a4dc"/>
    <path id="Tracé_631" data-name="Tracé 631" d="M373.727,296.368a1.729,1.729,0,0,1-.758-.741,2.453,2.453,0,0,1-.26-1.169v-.547a2.723,2.723,0,0,1,.249-1.223,1.761,1.761,0,0,1,.725-.774,2.327,2.327,0,0,1,1.152-.265,1.863,1.863,0,0,1,1.082.314,1.947,1.947,0,0,1,.687.92,4.006,4.006,0,0,1,.233,1.456v.314h-3.306v-.86h2.143l-.016-.114a1.1,1.1,0,0,0-.265-.649.738.738,0,0,0-.568-.227.918.918,0,0,0-.714.276,1.116,1.116,0,0,0-.254.779v.617a1.015,1.015,0,0,0,.276.763,1.069,1.069,0,0,0,.774.271,1.507,1.507,0,0,0,.509-.092,1.459,1.459,0,0,0,.455-.26l.833.741a2.9,2.9,0,0,1-.85.536,2.547,2.547,0,0,1-.947.189A2.58,2.58,0,0,1,373.727,296.368Z" transform="translate(-2740.624 1869.31)" fill="#44a4dc"/>
  </g>
</svg>
