<?xml version="1.0" encoding="UTF-8" standalone="no"?>
<!DOCTYPE svg PUBLIC "-//W3C//DTD SVG 1.1//EN" "http://www.w3.org/Graphics/SVG/1.1/DTD/svg11.dtd">
<svg width="100%" height="100%" viewBox="0 0 338 341" version="1.1" xmlns="http://www.w3.org/2000/svg" xmlns:xlink="http://www.w3.org/1999/xlink" xml:space="preserve" xmlns:serif="http://www.serif.com/" style="fill-rule:evenodd;clip-rule:evenodd;stroke-miterlimit:10;">
    <g transform="matrix(1,0,0,1,-207.862,-35.7042)">
        <g id="Calque-1" serif:id="Calque 1">
        </g>
        <g transform="matrix(0,-1,-1,0,479.389,129.618)">
            <g id="Calque-32" serif:id="Calque 32">
                <path d="M-9.436,-9.436C-4.225,-9.436 0,-5.211 0,0C0,5.21 -4.225,9.436 -9.436,9.436C-14.647,9.436 -18.872,5.21 -18.872,0C-18.872,-5.211 -14.647,-9.436 -9.436,-9.436" style="fill:rgb(24,167,186);fill-rule:nonzero;"/>
            </g>
        </g>
        <g transform="matrix(1,0,0,1,0,-88.214)">
            <g id="Calque-31" serif:id="Calque 31">
                <rect x="481.026" y="284.858" width="31.471" height="18.498" style="fill:rgb(28,117,163);"/>
            </g>
        </g>
        <g transform="matrix(0,-1,-1,0,479.389,263.303)">
            <g id="Calque-30" serif:id="Calque 30">
                <path d="M-9.436,-9.436C-4.225,-9.436 0,-5.211 0,0C0,5.21 -4.225,9.436 -9.436,9.436C-14.647,9.436 -18.872,5.21 -18.872,0C-18.872,-5.211 -14.647,-9.436 -9.436,-9.436" style="fill:rgb(30,86,134);fill-rule:nonzero;"/>
            </g>
        </g>
        <g transform="matrix(1,0,0,1,429.66,205.893)">
            <g id="Calque-29" serif:id="Calque 29">
                <path d="M0,0L65.234,0" style="fill:none;fill-rule:nonzero;stroke:rgb(28,117,163);stroke-width:10px;"/>
            </g>
        </g>
        <g transform="matrix(0,-1,-1,0,429.661,75.7328)">
            <g id="Calque-28" serif:id="Calque 28">
                <path d="M-10.233,-10.232C-4.582,-10.232 0,-5.651 0,0C0,5.652 -4.582,10.233 -10.233,10.233C-15.884,10.233 -20.465,5.652 -20.465,0C-20.465,-5.651 -15.884,-10.232 -10.233,-10.232" style="fill:rgb(148,206,197);fill-rule:nonzero;"/>
            </g>
        </g>
        <g transform="matrix(1,0,0,1,0,-221.892)">
            <g id="Calque-27" serif:id="Calque 27">
                <rect x="413.706" y="351.697" width="31.471" height="18.498" style="fill:rgb(24,167,186);"/>
            </g>
        </g>
        <g transform="matrix(1,0,0,1,0,-88.214)">
            <g id="Calque-26" serif:id="Calque 26">
                <rect x="413.706" y="284.858" width="31.471" height="18.498" style="fill:rgb(28,117,163);"/>
            </g>
        </g>
        <g transform="matrix(0,-1,-1,0,429.66,257.006)">
            <g id="Calque-25" serif:id="Calque 25">
                <path d="M-15.726,-15.726C-7.041,-15.726 0,-8.685 0,0C0,8.686 -7.041,15.726 -15.726,15.726C-24.412,15.726 -31.452,8.686 -31.452,0C-31.452,-8.685 -24.412,-15.726 -15.726,-15.726" style="fill:rgb(30,86,134);fill-rule:nonzero;"/>
            </g>
        </g>
        <g transform="matrix(0,-1,-1,0,429.66,315.593)">
            <g id="Calque-24" serif:id="Calque 24">
                <path d="M-10.232,-10.232C-4.581,-10.232 -0,-5.651 -0,-0C-0,5.652 -4.581,10.232 -10.232,10.232C-15.883,10.232 -20.464,5.652 -20.464,-0C-20.464,-5.651 -15.883,-10.232 -10.232,-10.232" style="fill:rgb(21,74,107);fill-rule:nonzero;"/>
            </g>
        </g>
        <g transform="matrix(1,0,0,1,363.997,49.5691)">
            <g id="Calque-23" serif:id="Calque 23">
                <path d="M0,13.594C3.751,13.594 6.805,10.542 6.805,6.792C6.805,3.065 3.751,0 0,0C-3.727,0 -6.778,3.065 -6.778,6.792C-6.778,10.542 -3.727,13.594 0,13.594" style="fill:rgb(148,206,197);fill-rule:nonzero;"/>
            </g>
        </g>
        <g transform="matrix(0,-1,-1,0,364.207,73.1693)">
            <g id="Calque-22" serif:id="Calque 22">
                <path d="M-12.797,-12.797C-5.73,-12.797 -0.001,-7.068 -0.001,0C-0.001,7.068 -5.73,12.797 -12.797,12.797C-19.863,12.797 -25.593,7.068 -25.593,0C-25.593,-7.068 -19.863,-12.797 -12.797,-12.797" style="fill:rgb(148,206,197);fill-rule:nonzero;"/>
            </g>
        </g>
        <g transform="matrix(0,-1,-1,0,364.207,119.136)">
            <g id="Calque-21" serif:id="Calque 21">
                <path d="M-19.918,-19.918C-8.918,-19.918 -0,-11 -0,0C-0,11 -8.918,19.918 -19.918,19.918C-30.918,19.918 -39.835,11 -39.835,0C-39.835,-11 -30.918,-19.918 -19.918,-19.918" style="fill:rgb(24,167,186);fill-rule:nonzero;"/>
            </g>
        </g>
        <g transform="matrix(0,-1,-1,0,364.207,181.325)">
            <g id="Calque-20" serif:id="Calque 20">
                <path d="M-24.568,-24.568C-11,-24.568 -0,-13.569 -0,-0C-0,13.569 -11,24.568 -24.568,24.568C-38.137,24.568 -49.136,13.569 -49.136,-0C-49.136,-13.569 -38.137,-24.568 -24.568,-24.568" style="fill:rgb(28,117,163);fill-rule:nonzero;"/>
            </g>
        </g>
        <g transform="matrix(0,-1,-1,0,364.208,252.82)">
            <g id="Calque-19" serif:id="Calque 19">
                <path d="M-19.918,-19.917C-8.918,-19.917 0,-10.999 0,0.001C0,11.001 -8.918,19.918 -19.918,19.918C-30.918,19.918 -39.835,11.001 -39.835,0.001C-39.835,-10.999 -30.918,-19.917 -19.918,-19.917" style="fill:rgb(30,86,134);fill-rule:nonzero;"/>
            </g>
        </g>
        <g transform="matrix(0,-1,-1,0,364.208,313.028)">
            <g id="Calque-18" serif:id="Calque 18">
                <path d="M-12.797,-12.796C-5.73,-12.796 0,-7.067 0,0.001C0,7.068 -5.73,12.797 -12.797,12.797C-19.864,12.797 -25.593,7.068 -25.593,0.001C-25.593,-7.067 -19.864,-12.796 -12.797,-12.796" style="fill:rgb(21,74,107);fill-rule:nonzero;"/>
            </g>
        </g>
        <g transform="matrix(1,0,0,1,364.194,348.623)">
            <g id="Calque-17" serif:id="Calque 17">
                <path d="M0,13.594C3.751,13.594 6.805,10.542 6.805,6.792C6.805,3.065 3.751,0 0,0C-3.727,0 -6.779,3.065 -6.779,6.792C-6.779,10.542 -3.727,13.594 0,13.594" style="fill:rgb(21,74,107);fill-rule:nonzero;"/>
            </g>
        </g>
        <g transform="matrix(1,0,0,1,364.207,139.053)">
            <g id="Calque-16" serif:id="Calque 16">
                <path d="M0,0L65.234,0" style="fill:none;fill-rule:nonzero;stroke:rgb(24,167,186);stroke-width:10px;"/>
            </g>
        </g>
        <g transform="matrix(1,0,0,1,365.546,272.731)">
            <g id="Calque-15" serif:id="Calque 15">
                <path d="M0,0L65.233,0" style="fill:none;fill-rule:nonzero;stroke:rgb(30,86,134);stroke-width:10px;"/>
            </g>
        </g>
        <g transform="matrix(1,0,0,1,299.166,85.9536)">
            <g id="Calque-14" serif:id="Calque 14">
                <path d="M0,0L65.234,0" style="fill:none;fill-rule:nonzero;stroke:rgb(148,206,197);stroke-width:10px;"/>
            </g>
        </g>
        <g transform="matrix(1,0,0,1,299.166,205.892)">
            <g id="Calque-13" serif:id="Calque 13">
                <path d="M0,0L65.234,0" style="fill:none;fill-rule:nonzero;stroke:rgb(28,117,163);stroke-width:10px;"/>
            </g>
        </g>
        <g transform="matrix(1,0,0,1,299.166,325.825)">
            <g id="Calque-12" serif:id="Calque 12">
                <path d="M0,0L65.234,0" style="fill:none;fill-rule:nonzero;stroke:rgb(21,74,107);stroke-width:10px;"/>
            </g>
        </g>
        <g transform="matrix(0,-1,-1,0,298.558,75.7328)">
            <g id="Calque-11" serif:id="Calque 11">
                <path d="M-10.233,-10.232C-4.582,-10.232 0,-5.65 0,0C0,5.652 -4.582,10.233 -10.233,10.233C-15.884,10.233 -20.465,5.652 -20.465,0C-20.465,-5.65 -15.884,-10.232 -10.233,-10.232" style="fill:rgb(148,206,197);fill-rule:nonzero;"/>
            </g>
        </g>
        <g transform="matrix(0,-1,-1,0,298.557,123.317)">
            <g id="Calque-10" serif:id="Calque 10">
                <path d="M-15.726,-15.726C-7.041,-15.726 0,-8.685 0,-0.001C0,8.685 -7.041,15.726 -15.726,15.726C-24.411,15.726 -31.452,8.685 -31.452,-0.001C-31.452,-8.685 -24.411,-15.726 -15.726,-15.726" style="fill:rgb(24,167,186);fill-rule:nonzero;"/>
            </g>
        </g>
        <g transform="matrix(0,-1,-1,0,298.614,185.975)">
            <g id="Calque-9" serif:id="Calque 9">
                <path d="M-19.918,-19.918C-8.918,-19.918 -0,-11.001 -0,-0C-0,11 -8.918,19.918 -19.918,19.918C-30.918,19.918 -39.835,11 -39.835,-0C-39.835,-11.001 -30.918,-19.918 -19.918,-19.918" style="fill:rgb(28,117,163);fill-rule:nonzero;"/>
            </g>
        </g>
        <g transform="matrix(0,-1,-1,0,298.754,257.006)">
            <g id="Calque-8" serif:id="Calque 8">
                <path d="M-15.726,-15.726C-7.041,-15.726 0,-8.685 0,0C0,8.685 -7.041,15.726 -15.726,15.726C-24.412,15.726 -31.452,8.685 -31.452,0C-31.452,-8.685 -24.412,-15.726 -15.726,-15.726" style="fill:rgb(30,86,134);fill-rule:nonzero;"/>
            </g>
        </g>
        <g transform="matrix(0,-1,-1,0,298.755,315.593)">
            <g id="Calque-7" serif:id="Calque 7">
                <path d="M-10.232,-10.232C-4.581,-10.232 -0,-5.65 -0,0.001C-0,5.652 -4.581,10.232 -10.232,10.232C-15.883,10.232 -20.464,5.652 -20.464,0.001C-20.464,-5.65 -15.883,-10.232 -10.232,-10.232" style="fill:rgb(21,74,107);fill-rule:nonzero;"/>
            </g>
        </g>
        <g transform="matrix(0,-1,-1,0,248.677,129.618)">
            <g id="Calque-4" serif:id="Calque 4">
                <path d="M-9.436,-9.436C-4.225,-9.436 0,-5.211 0,0C0,5.21 -4.225,9.436 -9.436,9.436C-14.647,9.436 -18.872,5.21 -18.872,0C-18.872,-5.211 -14.647,-9.436 -9.436,-9.436" style="fill:rgb(24,167,186);fill-rule:nonzero;"/>
            </g>
        </g>
        <g transform="matrix(0,-1,-1,0,248.677,194.093)">
            <g id="Calque-5" serif:id="Calque 5">
                <path d="M-11.799,-11.799C-5.283,-11.799 0,-6.516 0,0C0,6.516 -5.283,11.799 -11.799,11.799C-18.315,11.799 -23.598,6.516 -23.598,0C-23.598,-6.516 -18.315,-11.799 -11.799,-11.799" style="fill:rgb(28,117,163);fill-rule:nonzero;"/>
            </g>
        </g>
        <g transform="matrix(0,-1,-1,0,248.677,263.296)">
            <g id="Calque-6" serif:id="Calque 6">
                <path d="M-9.436,-9.436C-4.224,-9.436 0,-5.211 0,0C0,5.21 -4.224,9.436 -9.436,9.436C-14.647,9.436 -18.872,5.21 -18.872,0C-18.872,-5.211 -14.647,-9.436 -9.436,-9.436" style="fill:rgb(30,86,134);fill-rule:nonzero;"/>
            </g>
        </g>
        <g transform="matrix(1,0,0,1,214.64,199.096)">
            <g id="Calque-3" serif:id="Calque 3">
                <path d="M0,13.594C3.751,13.594 6.805,10.542 6.805,6.792C6.805,3.065 3.751,0 0,0C-3.726,0 -6.778,3.065 -6.778,6.792C-6.778,10.542 -3.726,13.594 0,13.594" style="fill:rgb(28,117,163);fill-rule:nonzero;"/>
            </g>
        </g>
    </g>
</svg>
