<svg xmlns="http://www.w3.org/2000/svg" width="264.735" height="42.049" viewBox="0 0 264.735 42.049">
  <g id="Groupe_40" data-name="Groupe 40" transform="translate(-194.144 -797.009)">
    <g id="Groupe_38" data-name="Groupe 38" transform="translate(194.144 797.009)">
      <path id="Tracé_757" data-name="Tracé 757" d="M188.146,95.528a2.645,2.645,0,0,0,2.554-1.969h3.013a3.306,3.306,0,1,0,0-1.35H190.7a2.643,2.643,0,1,0-2.554,3.32" transform="translate(-175.925 -71.858)"/>
      <path id="Tracé_758" data-name="Tracé 758" d="M158.482,98.268a1.587,1.587,0,1,0,1.585,1.585,1.589,1.589,0,0,0-1.585-1.585" transform="translate(-152.976 -78.829)"/>
      <path id="Tracé_759" data-name="Tracé 759" d="M138.027,101.554a.937.937,0,1,0,.937.935.937.937,0,0,0-.937-.935" transform="translate(-137.093 -81.465)"/>
      <path id="Tracé_760" data-name="Tracé 760" d="M232.649,47.475a2.644,2.644,0,1,0,2.556,3.318h4.131v.57h4.233V48.876h-4.233v.569h-4.131a2.641,2.641,0,0,0-2.556-1.969" transform="translate(-211.627 -38.084)"/>
      <path id="Tracé_761" data-name="Tracé 761" d="M316.679,56.972A1.267,1.267,0,1,0,315.41,55.7a1.267,1.267,0,0,0,1.269,1.267" transform="translate(-280.137 -43.669)"/>
      <path id="Tracé_762" data-name="Tracé 762" d="M282.3,20.543a1.376,1.376,0,1,0-1.375-1.377,1.376,1.376,0,0,0,1.375,1.377" transform="translate(-252.473 -14.271)"/>
      <path id="Tracé_763" data-name="Tracé 763" d="M239.669,1.828a.914.914,0,1,0-.912-.915.916.916,0,0,0,.912.915" transform="translate(-218.646 0)"/>
      <path id="Tracé_764" data-name="Tracé 764" d="M190.293,54.374a2.115,2.115,0,1,0-2.115-2.114,2.114,2.114,0,0,0,2.115,2.114" transform="translate(-178.073 -40.225)"/>
      <path id="Tracé_765" data-name="Tracé 765" d="M159.772,56.972A1.267,1.267,0,1,0,158.5,55.7a1.268,1.268,0,0,0,1.271,1.267" transform="translate(-154.266 -43.669)"/>
      <path id="Tracé_766" data-name="Tracé 766" d="M193.292,19.144a1.374,1.374,0,0,0,1.2-.7h6.022a1.72,1.72,0,1,0,0-1.349H194.49a1.376,1.376,0,1,0-1.2,2.052" transform="translate(-181.072 -12.873)"/>
      <path id="Tracé_767" data-name="Tracé 767" d="M202.094,179.141a1.717,1.717,0,0,0-1.581,1.047h-6.021a1.378,1.378,0,1,0,0,1.344h6.019a1.719,1.719,0,1,0,1.582-2.391" transform="translate(-181.072 -143.705)"/>
      <path id="Tracé_768" data-name="Tracé 768" d="M241.453,138.9a2.113,2.113,0,0,0-2,1.44H235.2a2.645,2.645,0,1,0,0,1.349h4.246a2.114,2.114,0,1,0,2-2.789" transform="translate(-211.626 -110.996)"/>
      <path id="Tracé_769" data-name="Tracé 769" d="M316.679,145.329a1.267,1.267,0,1,0,1.269,1.266,1.268,1.268,0,0,0-1.269-1.266" transform="translate(-280.137 -116.581)"/>
      <path id="Tracé_770" data-name="Tracé 770" d="M282.3,180.875a1.377,1.377,0,1,0,1.375,1.376,1.376,1.376,0,0,0-1.375-1.376" transform="translate(-252.473 -145.096)"/>
      <path id="Tracé_771" data-name="Tracé 771" d="M239.669,203.329a.914.914,0,1,0,.915.916.914.914,0,0,0-.915-.916" transform="translate(-218.646 -163.108)"/>
      <path id="Tracé_772" data-name="Tracé 772" d="M192.408,143.165a2.115,2.115,0,1,0-2.115,2.117,2.113,2.113,0,0,0,2.115-2.117" transform="translate(-178.073 -113.151)"/>
      <path id="Tracé_773" data-name="Tracé 773" d="M159.772,145.329a1.267,1.267,0,1,0,1.268,1.266,1.268,1.268,0,0,0-1.268-1.266" transform="translate(-154.266 -116.581)"/>
      <path id="Tracé_774" data-name="Tracé 774" d="M286.159,100v.569H281.4V100h-4.233v2.488H281.4v-.569h4.755v.569h4.233V100Z" transform="translate(-249.462 -80.22)"/>
    </g>
    <g id="Groupe_39" data-name="Groupe 39" transform="translate(250.113 811.464)">
      <g id="Groupe_36" data-name="Groupe 36" transform="translate(142.211)">
        <path id="Tracé_784" data-name="Tracé 784" d="M464.417,245.594h-12.94a.432.432,0,1,1,0-.864h12.94a.432.432,0,1,1,0,.864" transform="translate(-398.295 -244.729)"/>
        <path id="Tracé_785" data-name="Tracé 785" d="M464.417,273.992h-12.94a.432.432,0,1,1,0-.865h12.94a.432.432,0,1,1,0,.865" transform="translate(-398.295 -260.852)"/>
        <path id="Tracé_786" data-name="Tracé 786" d="M464.417,259.5h-12.94a.432.432,0,1,1,0-.864h12.94a.432.432,0,1,1,0,.864" transform="translate(-398.295 -252.622)"/>
        <path id="Tracé_789" data-name="Tracé 789" d="M376.284,257.871a6.559,6.559,0,1,1,6.558-6.558,6.566,6.566,0,0,1-6.558,6.558m0-12.253a5.694,5.694,0,1,0,5.694,5.694,5.7,5.7,0,0,0-5.694-5.694" transform="translate(-352.125 -244.743)"/>
        <path id="Tracé_790" data-name="Tracé 790" d="M423.6,257.871a.432.432,0,0,1-.306-.127l-11.515-11.515V257.37a.432.432,0,1,1-.864,0V245.186a.432.432,0,0,1,.738-.306L423.171,256.4V245.186a.432.432,0,1,1,.864,0v12.253a.432.432,0,0,1-.267.4.426.426,0,0,1-.165.033" transform="translate(-375.513 -244.743)"/>
        <path id="Tracé_791" data-name="Tracé 791" d="M341.692,257.871H329.439a.432.432,0,0,1-.306-.738l11.515-11.515H329.507a.432.432,0,1,1,0-.865h12.184a.432.432,0,0,1,.306.738l-11.515,11.515h11.209a.432.432,0,0,1,0,.865" transform="translate(-329.007 -244.743)"/>
      </g>
      <g id="Groupe_37" data-name="Groupe 37">
        <path id="Tracé_775" data-name="Tracé 775" d="M127.1,257.871a.432.432,0,0,1-.389-.243l-5.611-11.49-6.1,11.5a.433.433,0,1,1-.764-.406l6.5-12.252a.432.432,0,0,1,.771.013l5.983,12.253a.431.431,0,0,1-.2.577.419.419,0,0,1-.188.044" transform="translate(-64.831 -244.743)"/>
        <path id="Tracé_776" data-name="Tracé 776" d="M8.726,257.871H.432a.432.432,0,0,1,0-.865H8.726a2.642,2.642,0,0,0,0-5.262H3.7a3.5,3.5,0,0,1,0-6.991h8.293a.432.432,0,0,1,0,.865H3.7a2.642,2.642,0,0,0,0,5.262H8.726a3.5,3.5,0,0,1,0,6.991" transform="translate(0 -244.743)"/>
        <path id="Tracé_777" data-name="Tracé 777" d="M49.738,245.594H36.8a.432.432,0,1,1,0-.864H49.738a.432.432,0,1,1,0,.864" transform="translate(-20.649 -244.729)"/>
        <path id="Tracé_778" data-name="Tracé 778" d="M51.766,257.9a.432.432,0,0,1-.432-.432V245.212a.432.432,0,1,1,.864,0v12.253a.432.432,0,0,1-.432.432" transform="translate(-29.145 -244.758)"/>
        <path id="Tracé_779" data-name="Tracé 779" d="M156,245.594H143.065a.432.432,0,1,1,0-.864H156a.432.432,0,1,1,0,.864" transform="translate(-80.981 -244.729)"/>
        <path id="Tracé_780" data-name="Tracé 780" d="M158.029,257.9a.432.432,0,0,1-.432-.432V245.212a.432.432,0,1,1,.864,0v12.253a.432.432,0,0,1-.432.432" transform="translate(-89.477 -244.758)"/>
        <path id="Tracé_781" data-name="Tracé 781" d="M195.751,245.594h-12.94a.432.432,0,1,1,0-.864h12.94a.432.432,0,1,1,0,.864" transform="translate(-103.546 -244.729)"/>
        <path id="Tracé_782" data-name="Tracé 782" d="M195.751,273.992h-12.94a.432.432,0,1,1,0-.865h12.94a.432.432,0,1,1,0,.865" transform="translate(-103.546 -260.852)"/>
        <path id="Tracé_783" data-name="Tracé 783" d="M195.751,259.5h-12.94a.432.432,0,1,1,0-.864h12.94a.432.432,0,1,1,0,.864" transform="translate(-103.546 -252.622)"/>
        <path id="Tracé_787" data-name="Tracé 787" d="M287.553,257.871h-5.978a6.559,6.559,0,0,1,0-13.117h5.978a.432.432,0,0,1,0,.865h-5.978a5.694,5.694,0,0,0,0,11.388h5.978a.432.432,0,0,1,0,.865" transform="translate(-156.142 -244.743)"/>
        <path id="Tracé_788" data-name="Tracé 788" d="M263.72,257.871a.432.432,0,0,1-.432-.432V245.186a.432.432,0,1,1,.864,0v12.253a.432.432,0,0,1-.432.432" transform="translate(-149.483 -244.743)"/>
        <path id="Tracé_792" data-name="Tracé 792" d="M234.268,257.871h-5.977a6.559,6.559,0,1,1,0-13.117h5.977a.432.432,0,1,1,0,.865h-5.977a5.694,5.694,0,1,0,0,11.388h5.545v-5.683a.432.432,0,0,1,.865,0v6.115a.432.432,0,0,1-.432.432" transform="translate(-125.89 -244.743)"/>
        <path id="Tracé_793" data-name="Tracé 793" d="M76.135,257.883a.432.432,0,0,1-.432-.432V245.186a.432.432,0,0,1,.432-.432h9.726a3.5,3.5,0,0,1,0,6.991H81.933l7.019,5.351a.432.432,0,1,1-.524.687l-8.037-6.127a.432.432,0,0,1,.262-.776h5.208a2.642,2.642,0,0,0,0-5.262H76.568V257.45a.432.432,0,0,1-.432.432" transform="translate(-42.981 -244.743)"/>
      </g>
    </g>
  </g>
</svg>
